<?xml version="1.0" standalone="no"?>
<!DOCTYPE svg PUBLIC "-//W3C//DTD SVG 20010904//EN"
 "http://www.w3.org/TR/2001/REC-SVG-20010904/DTD/svg10.dtd">
<svg version="1.0" xmlns="http://www.w3.org/2000/svg"
 width="2537.000000pt" height="2537.000000pt" viewBox="0 0 2537.000000 2537.000000"
 preserveAspectRatio="xMidYMid meet">
<metadata>
Created by potrace 1.11, written by Peter Selinger 2001-2013
</metadata>
<g transform="translate(0.000000,2537.000000) scale(0.100000,-0.100000)"
fill="#000000" stroke="none">
<path d="M0 12685 l0 -12685 12685 0 12685 0 0 12685 0 12685 -12685 0 -12685
0 0 -12685z m10705 9331 c435 -17 927 -155 1306 -367 184 -103 351 -224 563
-411 l39 -34 -493 -555 c-271 -305 -497 -555 -501 -557 -4 -2 -57 30 -117 71
-397 268 -835 360 -1275 268 -543 -114 -927 -504 -1047 -1066 -31 -142 -38
-445 -16 -607 24 -171 67 -314 140 -463 76 -156 152 -261 269 -373 181 -173
397 -280 662 -328 137 -25 448 -25 590 0 314 56 505 174 639 395 20 32 36 64
36 70 0 8 -159 11 -580 11 l-580 0 0 710 0 710 1365 0 1365 0 5 -22 c12 -56
45 -326 56 -458 14 -177 6 -529 -16 -690 -46 -334 -130 -617 -265 -895 -309
-632 -869 -1099 -1557 -1299 -407 -118 -850 -144 -1294 -76 -1214 185 -2147
1012 -2444 2166 -72 277 -99 501 -98 814 1 338 39 598 130 900 334 1110 1280
1901 2468 2065 122 17 394 33 475 28 25 -1 104 -5 175 -7z m-5387 -2228 l2
-2158 1040 0 1040 0 0 -770 0 -770 -1860 0 -1860 0 0 2923 c0 1608 3 2927 7
2930 3 4 371 6 817 5 l811 -3 3 -2157z m11037 2138 c854 -121 1410 -586 1541
-1291 25 -133 26 -393 1 -517 -54 -271 -171 -487 -368 -678 l-87 -85 59 -33
c158 -88 372 -279 499 -447 174 -230 286 -512 320 -807 18 -154 8 -462 -20
-593 -79 -372 -252 -673 -514 -893 -300 -251 -676 -398 -1196 -469 -111 -14
-281 -17 -1497 -20 l-1373 -4 0 2924 c0 1608 3 2927 7 2931 4 4 570 5 1258 3
1109 -3 1264 -6 1370 -21z m6485 -746 l0 -770 -665 0 -665 0 0 -2160 0 -2160
-817 2 -818 3 -3 2157 -2 2158 -663 2 -662 3 -3 755 c-1 415 0 761 3 768 3 9
443 12 2150 12 l2145 0 0 -770z m-16711 -5821 c852 -54 1455 -449 1671 -1096
57 -171 74 -278 74 -468 0 -375 -120 -671 -373 -922 l-98 -97 85 -53 c449
-282 728 -721 793 -1246 17 -144 7 -433 -21 -572 -141 -707 -645 -1167 -1455
-1329 -305 -61 -257 -59 -1752 -63 l-1373 -4 0 2924 c0 1608 3 2927 7 2930 11
11 2262 8 2442 -4z m7412 -2918 c714 -1608 1299 -2925 1299 -2927 0 -2 -394
-3 -876 -2 l-876 3 -191 453 -191 452 -1162 0 -1162 0 -90 -212 c-49 -117
-136 -322 -192 -455 l-103 -243 -873 0 c-481 0 -874 3 -874 6 0 6 2575 5805
2591 5837 9 16 51 17 705 15 l695 -3 1300 -2924z m4102 2905 c360 -51 664
-150 918 -300 525 -311 844 -803 935 -1441 20 -145 23 -447 5 -585 -30 -228
-101 -471 -191 -649 -131 -261 -351 -513 -582 -665 l-57 -38 23 -37 c13 -20
325 -503 695 -1075 369 -571 671 -1040 671 -1042 0 -2 -400 -4 -888 -4 l-889
0 -558 895 -559 895 -193 0 -193 0 0 -895 0 -895 -815 0 -815 0 0 2931 0 2930
1188 -4 c1042 -3 1201 -6 1305 -21z m-11572 -8011 l1134 -1454 5 1452 5 1452
815 0 815 0 3 -2928 2 -2927 -622 0 -623 0 -1140 1453 -1140 1453 -3 -1453 -2
-1453 -820 0 -820 0 0 2923 c0 1608 3 2927 7 2930 3 4 286 7 628 7 l621 0
1135 -1455z m5528 458 c451 -752 598 -990 607 -980 6 6 275 454 599 995 l587
982 929 0 c510 0 930 -3 932 -7 2 -5 -502 -813 -1119 -1798 l-1123 -1790 0
-1132 -1 -1133 -820 0 -820 0 0 1136 0 1135 -1110 1780 c-611 978 -1113 1786
-1116 1794 -6 13 103 15 927 13 l933 -3 595 -992z"/>
<path d="M15360 20155 l0 -317 333 4 c307 4 337 6 397 26 83 27 140 75 171
144 20 45 24 69 24 163 0 95 -3 116 -23 152 -27 52 -73 87 -148 116 -56 20
-78 22 -406 25 l-348 3 0 -316z"/>
<path d="M15360 18029 l0 -471 433 5 c480 5 521 10 654 72 145 68 221 173 243
335 30 211 -45 366 -215 446 -154 73 -250 84 -732 84 l-383 0 0 -471z"/>
<path d="M5320 13574 l0 -316 333 4 c307 4 337 6 397 26 111 37 165 97 189
210 33 158 -8 286 -109 337 -96 49 -149 55 -492 55 l-318 0 0 -316z"/>
<path d="M5320 11449 l0 -471 438 5 c483 5 517 9 648 71 151 71 224 175 244
344 28 253 -83 414 -332 482 -124 33 -229 40 -620 40 l-378 0 0 -471z"/>
<path d="M11280 12547 c-145 -342 -274 -646 -287 -674 l-23 -53 574 0 573 0
-281 670 c-155 368 -284 671 -287 674 -3 3 -124 -275 -269 -617z"/>
<path d="M16780 13290 l0 -542 313 5 c348 6 411 14 534 72 124 58 201 152 234
285 21 83 18 300 -5 375 -52 173 -156 265 -359 316 -72 19 -119 22 -399 26
l-318 5 0 -542z"/>
</g>
</svg>
